<svg width="800" height="800" viewBox="0 0 800 800" fill="none" xmlns="http://www.w3.org/2000/svg">
<path d="M511.25 340L416.25 501.25C411.25 501.25 406.25 500 400 500C365 500 337.5 527.5 337.5 562.5C337.5 597.5 365 625 400 625C435 625 462.5 597.5 462.5 562.5C462.5 542.5 452.5 525 438.75 513.75L530 358.75C555 387.5 571.25 423.75 573.75 463.75C573.75 470 580 475 586.25 475H628.75C635 475 638.75 471.25 641.25 466.25C647.5 445 650 422.5 650 400C650 262.5 537.5 150 400 150C262.5 150 150 262.5 150 400C150 422.5 152.5 445 158.75 466.25C160 471.25 165 475 171.25 475H212.5C218.75 475 225 470 225 463.75C231.25 371.25 307.5 300 400 300C442.5 300 481.25 315 511.25 340ZM400 600C378.75 600 362.5 583.75 362.5 562.5C362.5 541.25 378.75 525 400 525C421.25 525 437.5 541.25 437.5 562.5C437.5 583.75 421.25 600 400 600ZM322.5 291.25L286.25 207.5C286.25 207.5 286.25 206.25 285 206.25C315 188.75 350 177.5 386.25 175V275C365 277.5 342.5 282.5 322.5 291.25ZM412.5 275V175C450 177.5 483.75 187.5 513.75 206.25C513.75 206.25 513.75 207.5 512.5 207.5L476.25 291.25C457.5 282.5 435 277.5 412.5 275ZM620 450H598.75C595 421.25 585 395 571.25 371.25L616.25 337.5C622.5 357.5 625 377.5 625 400C625 417.5 622.5 433.75 620 450ZM607.5 313.75C606.25 313.75 605 315 605 315L556.25 351.25C552.5 346.25 547.5 341.25 542.5 336.25L560 306.25C563.75 300 561.25 292.5 555 288.75C548.75 285 541.25 287.5 537.5 293.75L522.5 318.75C515 312.5 506.25 307.5 498.75 302.5L533.75 221.25C567.5 245 592.5 276.25 607.5 313.75ZM201.25 450H180C176.25 433.75 175 417.5 175 400C175 378.75 178.75 357.5 183.75 337.5L228.75 371.25C215 395 205 421.25 201.25 450ZM243.75 351.25L195 315C193.75 313.75 193.75 313.75 192.5 313.75C207.5 276.25 233.75 245 265 220L300 301.25C277.5 315 258.75 331.25 243.75 351.25Z" fill="white"/>
<path d="M700 637.5H621.25C685 578.75 725 493.75 725 400C725 221.25 578.75 75 400 75C386.25 75 372.5 76.25 358.75 77.5C348.75 53.75 326.25 37.5 300 37.5H287.5C260 37.5 237.5 60 237.5 87.5C237.5 97.5 241.25 106.25 247.5 112.5C233.75 120 221.25 127.5 208.75 137.5H50C42.5 137.5 37.5 142.5 37.5 150C37.5 157.5 42.5 162.5 50 162.5H178.75C115 221.25 75 306.25 75 400C75 578.75 221.25 725 400 725C471.25 725 537.5 701.25 591.25 662.5H700C721.25 662.5 737.5 678.75 737.5 700C737.5 721.25 721.25 737.5 700 737.5H687.5C673.75 737.5 662.5 726.25 662.5 712.5C662.5 705 667.5 700 675 700C682.5 700 687.5 695 687.5 687.5C687.5 680 682.5 675 675 675C653.75 675 637.5 691.25 637.5 712.5C637.5 740 660 762.5 687.5 762.5H700C735 762.5 762.5 735 762.5 700C762.5 665 735 637.5 700 637.5ZM275 100C267.5 100 262.5 95 262.5 87.5C262.5 73.75 273.75 62.5 287.5 62.5H300C313.75 62.5 326.25 70 332.5 82.5C312.5 86.25 293.75 92.5 275 100ZM336.25 106.25C333.75 123.75 318.75 137.5 300 137.5H255C280 123.75 307.5 112.5 336.25 106.25ZM400 700C235 700 100 565 100 400C100 303.75 146.25 217.5 217.5 162.5H300C333.75 162.5 361.25 136.25 362.5 102.5C375 101.25 387.5 100 400 100C565 100 700 235 700 400C700 496.25 653.75 582.5 582.5 637.5H350C342.5 637.5 337.5 642.5 337.5 650C337.5 657.5 342.5 662.5 350 662.5H545C502.5 686.25 452.5 700 400 700Z" fill="white"/>
</svg>
